<?xml version="1.0" encoding="utf-8"?>
<!-- Generator: Adobe Illustrator 17.0.0, SVG Export Plug-In . SVG Version: 6.00 Build 0)  -->
<!DOCTYPE svg PUBLIC "-//W3C//DTD SVG 1.1//EN" "http://www.w3.org/Graphics/SVG/1.1/DTD/svg11.dtd">
<svg version="1.1" xmlns="http://www.w3.org/2000/svg" xmlns:xlink="http://www.w3.org/1999/xlink" x="0px" y="0px" width="207.5px"
	 height="209.5px" viewBox="0 0 207.5 209.5" enable-background="new 0 0 207.5 209.5" xml:space="preserve">
<g id="Layer_1">
	<g>
		<g>
			<path fill="#359A46" d="M171.422,144.778c0.282,2.166-0.378,4.051-1.979,5.652l-18.794,18.652
				c-0.848,0.942-1.955,1.743-3.32,2.403c-1.366,0.66-2.709,1.084-4.027,1.272c-0.095,0-0.378,0.024-0.849,0.071
				c-0.47,0.047-1.082,0.071-1.837,0.071c-1.789,0-4.687-0.307-8.69-0.919c-4.005-0.612-8.904-2.12-14.696-4.522
				c-5.794-2.403-12.365-6.006-19.713-10.81c-7.348-4.804-15.168-11.4-23.458-19.783C67.464,130.363,62,124.145,57.666,118.21
				c-4.334-5.935-7.819-11.422-10.457-16.463c-2.638-5.04-4.617-9.609-5.935-13.708c-1.319-4.097-2.214-7.63-2.686-10.598
				c-0.471-2.968-0.66-5.299-0.565-6.995c0.094-1.696,0.141-2.638,0.141-2.827c0.188-1.319,0.612-2.661,1.272-4.027
				c0.66-1.366,1.46-2.472,2.403-3.32l18.794-18.794c1.319-1.319,2.827-1.979,4.522-1.979c1.224,0,2.308,0.353,3.249,1.06
				c0.942,0.707,1.743,1.578,2.403,2.615l15.12,28.686c0.848,1.507,1.084,3.157,0.707,4.946c-0.377,1.79-1.177,3.298-2.403,4.522
				l-6.924,6.924c-0.188,0.189-0.354,0.495-0.495,0.919c-0.141,0.424-0.212,0.778-0.212,1.06c0.377,1.979,1.224,4.239,2.544,6.783
				c1.131,2.262,2.874,5.017,5.229,8.268c2.355,3.249,5.699,6.995,10.033,11.234c4.239,4.334,8.007,7.701,11.305,10.104
				c3.296,2.402,6.052,4.168,8.266,5.299c2.213,1.13,3.91,1.813,5.087,2.048l1.766,0.353c0.188,0,0.495-0.071,0.919-0.212
				c0.424-0.141,0.731-0.306,0.919-0.495l8.054-8.196c1.697-1.507,3.674-2.262,5.935-2.262c1.602,0,2.874,0.283,3.815,0.848h0.142
				l27.273,16.11C169.867,141.339,171.044,142.892,171.422,144.778L171.422,144.778z M171.422,144.778"/>
		</g>
	</g>
</g>
<g id="Layer_2">
	<ellipse fill="none" stroke="#1C9947" stroke-width="8" stroke-miterlimit="10" cx="103.75" cy="104.75" rx="99.75" ry="100.75"/>
</g>
</svg>
